<svg width="25" height="24" viewBox="0 0 25 24" fill="none" xmlns="http://www.w3.org/2000/svg">
<g clip-path="url(#clip0_315_547)">
<path d="M20.9853 3.51469C18.7188 1.24828 15.7053 0 12.5 0C9.29473 0 6.28119 1.24823 4.01469 3.51469C1.74828 5.78119 0.5 8.79473 0.5 12C0.5 15.2053 1.74823 18.2188 4.01469 20.4853C6.28119 22.7517 9.29473 24 12.5 24C15.7053 24 18.7188 22.7518 20.9853 20.4853C23.2517 18.2188 24.5 15.2053 24.5 12C24.5 8.79473 23.2518 5.78119 20.9853 3.51469ZM5.70805 20.1233C6.10433 16.7138 9.03566 14.0816 12.5 14.0816C14.3263 14.0816 16.0437 14.7931 17.3354 16.0847C18.4267 17.1762 19.115 18.6013 19.2921 20.1231C17.4519 21.6643 15.0825 22.5938 12.5 22.5938C9.91747 22.5938 7.54827 21.6645 5.70805 20.1233ZM12.5 12.6331C10.4904 12.6331 8.85528 10.998 8.85528 8.98847C8.85528 6.9787 10.4905 5.34375 12.5 5.34375C14.5095 5.34375 16.1447 6.9787 16.1447 8.98847C16.1447 10.998 14.5096 12.6332 12.5 12.6332V12.6331ZM20.5025 18.9344C20.1411 17.4794 19.3899 16.1504 18.3297 15.0905C17.4655 14.2262 16.443 13.5778 15.3279 13.1715C16.6684 12.2624 17.551 10.7265 17.551 8.98847C17.551 6.20344 15.285 3.9375 12.5 3.9375C9.71497 3.9375 7.44903 6.20344 7.44903 8.98847C7.44903 10.7274 8.33234 12.2639 9.67395 13.1728C8.648 13.5467 7.69864 14.1248 6.8818 14.8857C5.69891 15.9873 4.87752 17.3919 4.49666 18.9333C2.88369 17.0738 1.90625 14.649 1.90625 12C1.90625 6.15858 6.65858 1.40625 12.5 1.40625C18.3414 1.40625 23.0938 6.15858 23.0938 12C23.0938 14.6495 22.1159 17.075 20.5025 18.9344Z" fill="#98A2B3"/>
</g>
<defs>
<clipPath id="clip0_315_547">
<rect width="24" height="24" fill="white" transform="translate(0.5)"/>
</clipPath>
</defs>
</svg>
