<svg width="14" height="14" viewBox="0 0 14 14" fill="none" xmlns="http://www.w3.org/2000/svg">
<path d="M8.99316 5.94141C9.23047 5.94141 9.42285 5.74903 9.42285 5.51172C9.42285 5.27441 9.23047 5.08203 8.99316 5.08203C8.75585 5.08203 8.56348 5.27441 8.56348 5.51172C8.56348 5.74903 8.75585 5.94141 8.99316 5.94141Z" fill="#667085"/>
<path d="M9.98145 1.85938H9.42285V1.42969C9.42285 1.19237 9.23048 1 8.99316 1C8.75585 1 8.56348 1.19237 8.56348 1.42969V1.85938H6.6084V1.42969C6.6084 1.19237 6.41603 1 6.17871 1C5.94139 1 5.74902 1.19237 5.74902 1.42969V1.85938H3.81543V1.42969C3.81543 1.19237 3.62306 1 3.38574 1C3.14843 1 2.95605 1.19237 2.95605 1.42969V1.85938H2.41895C1.47123 1.85938 0.700195 2.63041 0.700195 3.57812V10.2812C0.700195 11.229 1.47123 12 2.41895 12H5.70605C5.94337 12 6.13574 11.8076 6.13574 11.5703C6.13574 11.333 5.94337 11.1406 5.70605 11.1406H2.41895C1.94509 11.1406 1.55957 10.7551 1.55957 10.2812V3.57812C1.55957 3.10427 1.94509 2.71875 2.41895 2.71875H2.95605V3.14844C2.95605 3.38575 3.14843 3.57812 3.38574 3.57812C3.62306 3.57812 3.81543 3.38575 3.81543 3.14844V2.71875H5.74902V3.14844C5.74902 3.38575 5.94139 3.57812 6.17871 3.57812C6.41603 3.57812 6.6084 3.38575 6.6084 3.14844V2.71875H8.56348V3.14844C8.56348 3.38575 8.75585 3.57812 8.99316 3.57812C9.23048 3.57812 9.42285 3.38575 9.42285 3.14844V2.71875H9.98145C10.4553 2.71875 10.8408 3.10427 10.8408 3.57812V6.02734C10.8408 6.26466 11.0332 6.45703 11.2705 6.45703C11.5078 6.45703 11.7002 6.26466 11.7002 6.02734V3.57812C11.7002 2.63041 10.9292 1.85938 9.98145 1.85938Z" fill="#667085"/>
<path d="M9.10059 6.80078C7.66715 6.80078 6.50098 7.96695 6.50098 9.40039C6.50098 10.8338 7.66715 12 9.10059 12C10.534 12 11.7002 10.8338 11.7002 9.40039C11.7002 7.96695 10.534 6.80078 9.10059 6.80078ZM9.10059 11.1406C8.14103 11.1406 7.36035 10.36 7.36035 9.40039C7.36035 8.44081 8.14103 7.66016 9.10059 7.66016C10.0601 7.66016 10.8408 8.44081 10.8408 9.40039C10.8408 10.36 10.0601 11.1406 9.10059 11.1406Z" fill="#667085"/>
<path d="M9.72363 8.9707H9.53027V8.51953C9.53027 8.28221 9.3379 8.08984 9.10059 8.08984C8.86327 8.08984 8.6709 8.28221 8.6709 8.51953V9.40039C8.6709 9.63771 8.86327 9.83008 9.10059 9.83008H9.72363C9.96095 9.83008 10.1533 9.63771 10.1533 9.40039C10.1533 9.16307 9.96095 8.9707 9.72363 8.9707Z" fill="#667085"/>
<path d="M7.12402 5.94141C7.36133 5.94141 7.55371 5.74903 7.55371 5.51172C7.55371 5.27441 7.36133 5.08203 7.12402 5.08203C6.88671 5.08203 6.69434 5.27441 6.69434 5.51172C6.69434 5.74903 6.88671 5.94141 7.12402 5.94141Z" fill="#667085"/>
<path d="M5.25488 7.81055C5.49219 7.81055 5.68457 7.61817 5.68457 7.38086C5.68457 7.14355 5.49219 6.95117 5.25488 6.95117C5.01757 6.95117 4.8252 7.14355 4.8252 7.38086C4.8252 7.61817 5.01757 7.81055 5.25488 7.81055Z" fill="#667085"/>
<path d="M3.38574 5.94141C3.62305 5.94141 3.81543 5.74903 3.81543 5.51172C3.81543 5.27441 3.62305 5.08203 3.38574 5.08203C3.14843 5.08203 2.95605 5.27441 2.95605 5.51172C2.95605 5.74903 3.14843 5.94141 3.38574 5.94141Z" fill="#667085"/>
<path d="M3.38574 7.81055C3.62305 7.81055 3.81543 7.61817 3.81543 7.38086C3.81543 7.14355 3.62305 6.95117 3.38574 6.95117C3.14843 6.95117 2.95605 7.14355 2.95605 7.38086C2.95605 7.61817 3.14843 7.81055 3.38574 7.81055Z" fill="#667085"/>
<path d="M3.38574 9.67969C3.62305 9.67969 3.81543 9.48731 3.81543 9.25C3.81543 9.01269 3.62305 8.82031 3.38574 8.82031C3.14843 8.82031 2.95605 9.01269 2.95605 9.25C2.95605 9.48731 3.14843 9.67969 3.38574 9.67969Z" fill="#667085"/>
<path d="M5.25488 9.67969C5.49219 9.67969 5.68457 9.48731 5.68457 9.25C5.68457 9.01269 5.49219 8.82031 5.25488 8.82031C5.01757 8.82031 4.8252 9.01269 4.8252 9.25C4.8252 9.48731 5.01757 9.67969 5.25488 9.67969Z" fill="#667085"/>
<path d="M5.25488 5.94141C5.49219 5.94141 5.68457 5.74903 5.68457 5.51172C5.68457 5.27441 5.49219 5.08203 5.25488 5.08203C5.01757 5.08203 4.8252 5.27441 4.8252 5.51172C4.8252 5.74903 5.01757 5.94141 5.25488 5.94141Z" fill="#667085"/>
</svg>
