<svg width="25" height="24" viewBox="0 0 25 24" fill="none" xmlns="http://www.w3.org/2000/svg">
<g clip-path="url(#clip0_315_541)">
<path d="M11.5 23C11.5 23.553 11.052 24 10.5 24H5.5C2.743 24 0.5 21.757 0.5 19V5.001C0.5 2.244 2.742 0 5.499 0H15.5C18.257 0 20.5 2.242 20.5 4.999V6.999C20.5 7.552 20.052 7.999 19.5 7.999C18.948 7.999 18.5 7.552 18.5 6.999V4.999C18.5 3.345 17.154 1.999 15.5 1.999H5.499C3.845 1.999 2.499 3.346 2.499 5V18.999C2.499 20.653 3.845 21.999 5.499 21.999H10.499C11.051 21.999 11.499 22.446 11.499 22.999L11.5 23ZM24.053 23.553C23.858 23.748 23.602 23.846 23.346 23.846C23.09 23.846 22.834 23.748 22.639 23.553L19.973 20.887C18.992 21.585 17.796 22 16.5 22C13.186 22 10.5 19.314 10.5 16C10.5 12.686 13.186 10 16.5 10C19.814 10 22.5 12.686 22.5 16C22.5 17.296 22.085 18.492 21.387 19.473L24.053 22.139C24.444 22.53 24.444 23.162 24.053 23.553ZM17.48 18.326L20.183 15.712C20.581 15.329 20.595 14.696 20.212 14.298C19.83 13.899 19.197 13.888 18.798 14.269L16.085 16.893C15.942 17.035 15.707 17.036 15.563 16.893L14.431 15.785C14.036 15.399 13.403 15.406 13.017 15.801C12.63 16.196 12.637 16.828 13.032 17.215L14.164 18.323C14.623 18.772 15.226 18.997 15.828 18.997C16.43 18.997 17.029 18.772 17.481 18.326H17.48ZM7.5 5H5.5C4.948 5 4.5 5.447 4.5 6C4.5 6.553 4.948 7 5.5 7H7.5C8.052 7 8.5 6.553 8.5 6C8.5 5.447 8.052 5 7.5 5ZM7.5 15H5.5C4.948 15 4.5 15.447 4.5 16C4.5 16.553 4.948 17 5.5 17H7.5C8.052 17 8.5 16.553 8.5 16C8.5 15.447 8.052 15 7.5 15ZM11.5 5C10.948 5 10.5 5.447 10.5 6C10.5 6.553 10.948 7 11.5 7H15.5C16.052 7 16.5 6.553 16.5 6C16.5 5.447 16.052 5 15.5 5H11.5ZM7.5 10H5.5C4.948 10 4.5 10.447 4.5 11C4.5 11.553 4.948 12 5.5 12H7.5C8.052 12 8.5 11.553 8.5 11C8.5 10.447 8.052 10 7.5 10Z" fill="#FCD522"/>
</g>
<defs>
<clipPath id="clip0_315_541">
<rect width="24" height="24" fill="white" transform="translate(0.5)"/>
</clipPath>
</defs>
</svg>
