<svg width="20" height="21" viewBox="0 0 20 21" fill="none" xmlns="http://www.w3.org/2000/svg">
<path d="M2.36144 5.33337H4.26144C4.41049 5.85982 4.73586 6.32456 5.18736 6.6559C5.63885 6.98723 6.19138 7.16675 6.7597 7.16675C7.32802 7.16675 7.88055 6.98723 8.33204 6.6559C8.78354 6.32456 9.10891 5.85982 9.25796 5.33337H17.6392C17.8234 5.33337 18 5.26314 18.1303 5.13812C18.2605 5.0131 18.3337 4.84355 18.3337 4.66675C18.3337 4.48995 18.2605 4.32039 18.1303 4.19538C18 4.07036 17.8234 4.00013 17.6392 4.00013H9.25796C9.10891 3.47368 8.78354 3.00893 8.33204 2.6776C7.88055 2.34626 7.32802 2.16675 6.7597 2.16675C6.19138 2.16675 5.63885 2.34626 5.18736 2.6776C4.73586 3.00893 4.41049 3.47368 4.26144 4.00013H2.36144C2.17726 4.00013 2.00062 4.07036 1.87039 4.19538C1.74016 4.32039 1.66699 4.48995 1.66699 4.66675C1.66699 4.84355 1.74016 5.0131 1.87039 5.13812C2.00062 5.26314 2.17726 5.33337 2.36144 5.33337ZM6.75935 3.50016C6.99971 3.50016 7.23467 3.56858 7.43453 3.69677C7.63438 3.82495 7.79014 4.00715 7.88212 4.22031C7.97411 4.43348 7.99817 4.66804 7.95128 4.89434C7.90439 5.12063 7.78864 5.3285 7.61868 5.49165C7.44872 5.6548 7.23218 5.76591 6.99644 5.81092C6.7607 5.85593 6.51635 5.83283 6.29429 5.74453C6.07222 5.65624 5.88242 5.50671 5.74889 5.31487C5.61535 5.12302 5.54408 4.89748 5.54408 4.66675C5.54444 4.35746 5.6726 4.06094 5.90043 3.84224C6.12826 3.62354 6.43715 3.50051 6.75935 3.50016Z" fill="#1F1F1F"/>
<path d="M17.6392 9.83355H15.7392C15.5904 9.30712 15.2652 8.84233 14.8137 8.51094C14.3622 8.17955 13.8097 8 13.2413 8C12.6729 8 12.1203 8.17955 11.6689 8.51094C11.2174 8.84233 10.8922 9.30712 10.7434 9.83355H2.36144C2.17726 9.83355 2.00062 9.90377 1.87039 10.0288C1.74016 10.1537 1.66699 10.3232 1.66699 10.5C1.66699 10.6768 1.74016 10.8463 1.87039 10.9712C2.00062 11.0962 2.17726 11.1664 2.36144 11.1664H10.7434C10.8922 11.6929 11.2174 12.1577 11.6689 12.4891C12.1203 12.8204 12.6729 13 13.2413 13C13.8097 13 14.3622 12.8204 14.8137 12.4891C15.2652 12.1577 15.5904 11.6929 15.7392 11.1664H17.6392C17.8234 11.1664 18 11.0962 18.1303 10.9712C18.2605 10.8463 18.3337 10.6768 18.3337 10.5C18.3337 10.3232 18.2605 10.1537 18.1303 10.0288C18 9.90377 17.8234 9.83355 17.6392 9.83355ZM13.2413 11.6663C13.0009 11.6663 12.766 11.5979 12.5661 11.4697C12.3663 11.3416 12.2105 11.1594 12.1185 10.9463C12.0265 10.7332 12.0025 10.4987 12.0494 10.2725C12.0963 10.0462 12.212 9.83842 12.382 9.67531C12.5519 9.51221 12.7685 9.40113 13.0042 9.35613C13.24 9.31113 13.4843 9.33422 13.7064 9.4225C13.9284 9.51077 14.1182 9.66025 14.2518 9.85205C14.3853 10.0438 14.4566 10.2693 14.4566 10.5C14.4562 10.8092 14.3281 11.1057 14.1002 11.3243C13.8724 11.5429 13.5635 11.6659 13.2413 11.6663Z" fill="#1F1F1F"/>
<path d="M17.6392 15.6666H9.25796C9.10891 15.1402 8.78354 14.6754 8.33204 14.3441C7.88055 14.0128 7.32802 13.8333 6.7597 13.8333C6.19138 13.8333 5.63885 14.0128 5.18736 14.3441C4.73586 14.6754 4.41049 15.1402 4.26144 15.6666H2.36144C2.17726 15.6666 2.00062 15.7369 1.87039 15.8619C1.74016 15.9869 1.66699 16.1565 1.66699 16.3333C1.66699 16.5101 1.74016 16.6796 1.87039 16.8046C2.00062 16.9296 2.17726 16.9999 2.36144 16.9999H4.26144C4.41049 17.5263 4.73586 17.9911 5.18736 18.3224C5.63885 18.6537 6.19138 18.8333 6.7597 18.8333C7.32802 18.8333 7.88055 18.6537 8.33204 18.3224C8.78354 17.9911 9.10891 17.5263 9.25796 16.9999H17.6392C17.8234 16.9999 18 16.9296 18.1303 16.8046C18.2605 16.6796 18.3337 16.5101 18.3337 16.3333C18.3337 16.1565 18.2605 15.9869 18.1303 15.8619C18 15.7369 17.8234 15.6666 17.6392 15.6666ZM6.75935 17.4998C6.51899 17.4998 6.28403 17.4314 6.08418 17.3032C5.88433 17.175 5.72856 16.9929 5.63658 16.7797C5.5446 16.5665 5.52054 16.332 5.56743 16.1057C5.61432 15.8794 5.73006 15.6715 5.90002 15.5084C6.06998 15.3452 6.28652 15.2341 6.52226 15.1891C6.75801 15.1441 7.00236 15.1672 7.22442 15.2555C7.44648 15.3438 7.63628 15.4933 7.76982 15.6851C7.90336 15.877 7.97463 16.1025 7.97463 16.3333C7.97408 16.6425 7.84587 16.9389 7.61808 17.1576C7.39029 17.3762 7.0815 17.4993 6.75935 17.4998Z" fill="#1F1F1F"/>
</svg>
