<svg width="16" height="16" viewBox="0 0 16 16" fill="none" xmlns="http://www.w3.org/2000/svg">
<g id="Frame" clip-path="url(#clip0_124_11488)">
<g id="Group">
<path id="Vector" d="M9.61619 14.5727C9.48379 14.6057 9.3504 14.6346 9.21622 14.6594C8.86719 14.7243 8.63644 15.06 8.701 15.4093C8.73148 15.5745 8.82556 15.7212 8.96301 15.8178C9.03303 15.8672 9.11224 15.9021 9.19598 15.9204C9.27972 15.9388 9.36628 15.9401 9.45055 15.9244C9.61039 15.8947 9.76929 15.8602 9.92704 15.8209C10.2717 15.7351 10.4817 15.386 10.3957 15.0415C10.3099 14.6967 9.96105 14.4869 9.61619 14.5727ZM14.3727 5.95132C14.4159 6.08199 14.4999 6.19532 14.6124 6.27455C14.7735 6.38802 14.9843 6.42619 15.1855 6.35968C15.5228 6.24769 15.7055 5.88401 15.5939 5.54692C15.5428 5.39261 15.487 5.2399 15.4266 5.089C15.2947 4.75916 14.9205 4.59858 14.5905 4.73051C14.2609 4.86238 14.1002 5.23661 14.2322 5.56655C14.283 5.69335 14.3298 5.82166 14.3727 5.95132ZM11.7063 13.6544C11.5923 13.7297 11.4761 13.8015 11.3577 13.8697C11.0499 14.0472 10.9445 14.4407 11.122 14.7483C11.1685 14.8292 11.2321 14.8989 11.3083 14.9527C11.5067 15.0923 11.7762 15.1132 12.0005 14.984C12.1414 14.9028 12.2797 14.8173 12.4154 14.7277C12.7116 14.5319 12.7932 14.1328 12.5973 13.8364C12.4015 13.5399 12.0026 13.4585 11.7063 13.6544ZM15.9939 7.74778C15.9799 7.39276 15.6808 7.11644 15.3257 7.1303C14.9711 7.1443 14.6945 7.44342 14.7085 7.7983C14.7138 7.93398 14.7152 8.0717 14.712 8.20724C14.7071 8.42987 14.8159 8.62833 14.9852 8.7476C15.0895 8.82113 15.2134 8.86186 15.341 8.86458C15.696 8.87245 15.9902 8.59087 15.9981 8.23569C16.0016 8.07373 16.0003 7.90963 15.9939 7.74778ZM14.2677 11.9623C13.9831 11.7487 13.5803 11.8067 13.3671 12.0909C13.2851 12.2 13.1999 12.3067 13.1114 12.4106C12.8813 12.681 12.9138 13.087 13.1842 13.3173C13.1996 13.3304 13.2152 13.3424 13.2313 13.3537C13.5001 13.5431 13.8736 13.4996 14.0909 13.2446C14.1965 13.1205 14.2983 12.9931 14.3961 12.8628C14.6093 12.5786 14.5516 12.1756 14.2677 11.9623ZM15.2132 9.63717C14.8743 9.53089 14.5133 9.71957 14.4071 10.0585C14.3662 10.1889 14.3214 10.3179 14.2728 10.4456C14.166 10.7261 14.2683 11.0347 14.5029 11.2001C14.5468 11.2311 14.5945 11.2564 14.6448 11.2754C14.9766 11.4021 15.3483 11.2356 15.4748 10.9036C15.5325 10.7518 15.5858 10.5983 15.6346 10.4433C15.7407 10.1043 15.5521 9.74344 15.2132 9.63717ZM6.80993 14.6652C6.23947 14.5631 5.68483 14.3869 5.16012 14.1409C5.15393 14.1376 5.1484 14.1339 5.1419 14.131C5.01825 14.0729 4.89633 14.0111 4.77629 13.9459C4.77588 13.9454 4.77512 13.9451 4.77447 13.9448C4.55398 13.8233 4.34035 13.6898 4.13454 13.5449C1.10884 11.4135 0.381345 7.21787 2.51287 4.19221C2.97636 3.53453 3.53725 2.98585 4.16257 2.55097C4.17027 2.54561 4.17797 2.54028 4.18561 2.53488C6.38912 1.0166 9.38114 0.914276 11.7209 2.47445L11.2184 3.20054C11.0787 3.40263 11.1646 3.54991 11.4092 3.5279L13.5921 3.33247C13.837 3.31046 13.9834 3.09863 13.9175 2.86213L13.3314 0.750148C13.2657 0.513381 13.0977 0.485041 12.9579 0.687104L12.4542 1.41491C10.7371 0.262272 8.67765 -0.177246 6.63352 0.177216C6.4289 0.21272 6.22572 0.256088 6.02444 0.307225C6.02289 0.3075 6.02166 0.307672 6.02042 0.307947C6.01268 0.309839 6.00484 0.312349 5.9973 0.314447C4.23462 0.767104 2.6967 1.79517 1.5993 3.262C1.59005 3.27297 1.58052 3.2837 1.57178 3.29563C1.53512 3.3451 1.49906 3.39501 1.46362 3.44535C1.4054 3.52804 1.34877 3.61184 1.29378 3.6967C1.28693 3.70688 1.28171 3.71723 1.27572 3.72752C0.370133 5.13082 -0.0666682 6.75318 0.00824147 8.40483C0.00841344 8.41027 0.0081039 8.41574 0.00824147 8.42131C0.015674 8.58364 0.0281535 8.7457 0.0456619 8.90726C0.0465906 8.91765 0.048895 8.92748 0.050649 8.93787C0.0685323 9.10071 0.0914496 9.26295 0.119368 9.42437C0.40635 11.08 1.18736 12.5699 2.35768 13.7291C2.3604 13.7318 2.36322 13.7348 2.36597 13.7376C2.36693 13.7387 2.368 13.7392 2.36893 13.7402C2.68636 14.0534 3.02908 14.3398 3.39362 14.5965C4.35734 15.2756 5.43046 15.7245 6.58293 15.9313C6.93261 15.9941 7.26664 15.7614 7.32938 15.4119C7.39208 15.0621 7.15951 14.7278 6.80993 14.6652Z" fill="#98A2B3"/>
<path id="Vector_2" d="M7.60558 2.86108C7.31794 2.86108 7.08496 3.09427 7.08496 3.3815V8.56626L11.8268 11.0175C11.9005 11.0558 11.9823 11.0757 12.0653 11.0757C12.2536 11.0757 12.4355 10.9731 12.528 10.7942C12.6599 10.5387 12.5601 10.225 12.3047 10.0931L8.12561 7.93252V3.3815C8.12558 3.09427 7.89287 2.86108 7.60558 2.86108Z" fill="#98A2B3"/>
</g>
</g>
<defs>
<clipPath id="clip0_124_11488">
<rect width="16" height="16" fill="white" transform="translate(0 -0.000488281)"/>
</clipPath>
</defs>
</svg>
