<svg width="25" height="24" viewBox="0 0 25 24" fill="none" xmlns="http://www.w3.org/2000/svg">
<g clip-path="url(#clip0_315_537)">
<path d="M22.5 5.72402V2.00002C22.5 1.73481 22.3946 1.48045 22.2071 1.29292C22.0196 1.10538 21.7652 1.00002 21.5 1.00002C21.2348 1.00002 20.9804 1.10538 20.7929 1.29292C20.6054 1.48045 20.5 1.73481 20.5 2.00002V4.36602L15.297 0.855023C14.4718 0.294846 13.4974 -0.00463867 12.5 -0.00463867C11.5026 -0.00463867 10.5282 0.294846 9.703 0.855023L2.703 5.57902C2.02429 6.03654 1.46841 6.65384 1.08426 7.37662C0.70012 8.0994 0.499482 8.9055 0.500001 9.72402V19C0.500001 21.757 2.743 24 5.5 24H8.5C8.76522 24 9.01957 23.8947 9.20711 23.7071C9.39464 23.5196 9.5 23.2652 9.5 23V15C9.5 14.449 9.948 14 10.5 14H14.5C15.052 14 15.5 14.449 15.5 15V23C15.5 23.2652 15.6054 23.5196 15.7929 23.7071C15.9804 23.8947 16.2348 24 16.5 24H19.5C22.257 24 24.5 21.757 24.5 19V9.72402C24.5004 8.94773 24.3198 8.18203 23.9727 7.48769C23.6255 6.79335 23.1213 6.18949 22.5 5.72402ZM22.5 19C22.5 20.654 21.154 22 19.5 22H17.5V15C17.5 13.346 16.154 12 14.5 12H10.5C8.846 12 7.5 13.346 7.5 15V22H5.5C3.846 22 2.5 20.654 2.5 19V9.72402C2.5 8.72502 2.994 7.79502 3.822 7.23702L10.822 2.51302C11.3168 2.17683 11.9013 1.99708 12.4995 1.99708C13.0977 1.99708 13.6822 2.17683 14.177 2.51302L21.177 7.23702C21.5844 7.51139 21.9181 7.88173 22.1486 8.31543C22.3791 8.74912 22.4995 9.23286 22.499 9.72402L22.5 19Z" fill="#98A2B3"/>
</g>
<defs>
<clipPath id="clip0_315_537">
<rect width="24" height="24" fill="white" transform="translate(0.5)"/>
</clipPath>
</defs>
</svg>
