<svg width="18" height="18" viewBox="0 0 18 18" fill="none" xmlns="http://www.w3.org/2000/svg">
<g clip-path="url(#clip0_375_727)">
<path d="M10.3975 9C10.3975 9.95142 9.64968 10.7227 8.7271 10.7227C7.80451 10.7227 7.05664 9.95142 7.05664 9C7.05664 8.04858 7.80451 7.27734 8.7271 7.27734C9.64968 7.27734 10.3975 8.04858 10.3975 9Z" fill="#838D95"/>
<path d="M12.6342 5.9521C12.5539 5.72771 12.4258 5.5246 12.2594 5.35788C12.0977 5.18622 11.9009 5.05411 11.6832 4.9713C11.5066 4.90057 11.2413 4.81639 10.7527 4.79346C10.2242 4.7686 10.0657 4.76324 8.72763 4.76324C7.38943 4.76324 7.23096 4.76846 6.70255 4.79332C6.21396 4.81639 5.94855 4.90057 5.77211 4.9713C5.55438 5.05411 5.35742 5.18622 5.19589 5.35788C5.02943 5.5246 4.90132 5.72757 4.82089 5.9521C4.75231 6.1342 4.67068 6.4079 4.64844 6.91176C4.62433 7.45668 4.61914 7.6201 4.61914 9.00012C4.61914 10.38 4.62433 10.5434 4.64844 11.0885C4.67068 11.5923 4.75231 11.8659 4.82089 12.048C4.90132 12.2725 5.0293 12.4755 5.19576 12.6422C5.35742 12.8139 5.55424 12.946 5.77197 13.0288C5.94855 13.0997 6.21396 13.1839 6.70255 13.2068C7.23096 13.2316 7.38929 13.2369 8.72749 13.2369C10.0658 13.2369 10.2243 13.2316 10.7526 13.2068C11.2412 13.1839 11.5066 13.0997 11.6832 13.0288C12.1202 12.8549 12.4656 12.4987 12.6342 12.048C12.7028 11.8659 12.7844 11.5923 12.8068 11.0885C12.8309 10.5434 12.836 10.38 12.836 9.00012C12.836 7.6201 12.8309 7.45668 12.8068 6.91176C12.7846 6.4079 12.7029 6.1342 12.6342 5.9521ZM8.72763 11.6537C7.30633 11.6537 6.15416 10.4657 6.15416 8.99998C6.15416 7.53427 7.30633 6.34624 8.72763 6.34624C10.1488 6.34624 11.301 7.53427 11.301 8.99998C11.301 10.4657 10.1488 11.6537 8.72763 11.6537ZM11.4027 6.8615C11.0706 6.8615 10.8013 6.58382 10.8013 6.24132C10.8013 5.89882 11.0706 5.62114 11.4027 5.62114C11.7348 5.62114 12.0041 5.89882 12.0041 6.24132C12.004 6.58382 11.7348 6.8615 11.4027 6.8615Z" fill="#838D95"/>
<path d="M8.72727 0C3.90807 0 0 4.0302 0 9C0 13.9698 3.90807 18 8.72727 18C13.5465 18 17.4545 13.9698 17.4545 9C17.4545 4.0302 13.5465 0 8.72727 0ZM13.7084 11.1307C13.6842 11.6808 13.5993 12.0564 13.4755 12.3852C13.2152 13.0794 12.683 13.6281 12.0099 13.8966C11.6912 14.0243 11.3268 14.1117 10.7935 14.1368C10.2591 14.1619 10.0884 14.168 8.72741 14.168C7.3663 14.168 7.19571 14.1619 6.66118 14.1368C6.12784 14.1117 5.76349 14.0243 5.44482 13.8966C5.11031 13.7668 4.80748 13.5634 4.55713 13.3005C4.30225 13.0424 4.10502 12.73 3.97918 12.3852C3.85534 12.0565 3.77051 11.6808 3.74627 11.1308C3.72164 10.5796 3.71591 10.4035 3.71591 9C3.71591 7.5965 3.72164 7.42044 3.74614 6.86934C3.77037 6.3192 3.85507 5.9436 3.97892 5.61484C4.10476 5.27 4.30211 4.95758 4.55713 4.69954C4.80735 4.43655 5.11031 4.23317 5.44469 4.10339C5.76349 3.97568 6.12771 3.88834 6.66118 3.8632C7.19558 3.83807 7.3663 3.83203 8.72727 3.83203C10.0882 3.83203 10.259 3.83807 10.7934 3.86334C11.3268 3.88834 11.6911 3.97568 12.0099 4.10326C12.3442 4.23303 12.6472 4.43655 12.8975 4.69954C13.1524 4.95772 13.3498 5.27 13.4755 5.61484C13.5995 5.9436 13.6842 6.3192 13.7085 6.86934C13.7329 7.42044 13.7386 7.5965 13.7386 9C13.7386 10.4035 13.7329 10.5796 13.7084 11.1307Z" fill="#838D95"/>
</g>
<defs>
<clipPath id="clip0_375_727">
<rect width="17.4545" height="18" fill="white"/>
</clipPath>
</defs>
</svg>
