<svg width="25" height="24" viewBox="0 0 25 24" fill="none" xmlns="http://www.w3.org/2000/svg">
<path fill-rule="evenodd" clip-rule="evenodd" d="M21.5 4C21.5 3.20435 21.1839 2.44129 20.6213 1.87868C20.0587 1.31607 19.2956 1 18.5 1H4.5C3.70435 1 2.94129 1.31607 2.37868 1.87868C1.81607 2.44129 1.5 3.20435 1.5 4V15C1.5 15.7956 1.81607 16.5587 2.37868 17.1213C2.94129 17.6839 3.70435 18 4.5 18H9.5C9.76522 18 10.0196 17.8946 10.2071 17.7071C10.3946 17.5196 10.5 17.2652 10.5 17C10.5 16.7348 10.3946 16.4804 10.2071 16.2929C10.0196 16.1054 9.76522 16 9.5 16H4.5C4.23478 16 3.98043 15.8946 3.79289 15.7071C3.60536 15.5196 3.5 15.2652 3.5 15V4C3.5 3.73478 3.60536 3.48043 3.79289 3.29289C3.98043 3.10536 4.23478 3 4.5 3H18.5C18.7652 3 19.0196 3.10536 19.2071 3.29289C19.3946 3.48043 19.5 3.73478 19.5 4V9.5C19.5 9.76522 19.6054 10.0196 19.7929 10.2071C19.9804 10.3946 20.2348 10.5 20.5 10.5C20.7652 10.5 21.0196 10.3946 21.2071 10.2071C21.3946 10.0196 21.5 9.76522 21.5 9.5V4Z" fill="#98A2B3"/>
<path fill-rule="evenodd" clip-rule="evenodd" d="M16.5 6C16.5 5.73478 16.3946 5.48043 16.2071 5.29289C16.0196 5.10536 15.7652 5 15.5 5H6C5.73478 5 5.48043 5.10536 5.29289 5.29289C5.10536 5.48043 5 5.73478 5 6C5 6.26522 5.10536 6.51957 5.29289 6.70711C5.48043 6.89464 5.73478 7 6 7H15.5C15.7652 7 16.0196 6.89464 16.2071 6.70711C16.3946 6.51957 16.5 6.26522 16.5 6ZM9.75 10C9.75 9.73478 9.64464 9.48043 9.45711 9.29289C9.26957 9.10536 9.01522 9 8.75 9H6C5.73478 9 5.48043 9.10536 5.29289 9.29289C5.10536 9.48043 5 9.73478 5 10C5 10.2652 5.10536 10.5196 5.29289 10.7071C5.48043 10.8946 5.73478 11 6 11H8.75C9.01522 11 9.26957 10.8946 9.45711 10.7071C9.64464 10.5196 9.75 10.2652 9.75 10Z" fill="#98A2B3"/>
<path fill-rule="evenodd" clip-rule="evenodd" d="M20.7474 15.6921L17.2934 13.8741L13.8384 15.6921L17.2934 17.1471L20.7474 15.6921ZM22.4094 14.3071C23.6124 14.9401 23.5374 16.6871 22.2844 17.2151L17.9174 19.0541C17.5174 19.2221 17.0674 19.2221 16.6684 19.0541L12.3014 17.2151C11.0484 16.6871 10.9734 14.9401 12.1764 14.3071L16.5434 12.0081C16.7747 11.8864 17.0321 11.8228 17.2934 11.8228C17.5548 11.8228 17.8122 11.8864 18.0434 12.0081L22.4094 14.3071Z" fill="#98A2B3"/>
<path fill-rule="evenodd" clip-rule="evenodd" d="M14.6338 16.707V19.749C14.6338 19.791 14.6558 19.831 14.6908 19.853C15.3947 20.3011 16.2069 20.5501 17.0411 20.5733C17.8752 20.5965 18.7 20.3932 19.4278 19.985L19.6808 19.843C19.7147 19.8239 19.7429 19.7962 19.7626 19.7626C19.7822 19.7291 19.7927 19.6909 19.7928 19.652V16.707H21.7928V19.652C21.7926 20.0462 21.6874 20.4332 21.4881 20.7733C21.2888 21.1133 21.0026 21.3942 20.6588 21.587L20.4058 21.729C19.3629 22.3139 18.1809 22.6051 16.9857 22.5718C15.7904 22.5386 14.6266 22.182 13.6178 21.54C13.3165 21.3485 13.0684 21.084 12.8964 20.7712C12.7244 20.4583 12.6341 20.1071 12.6338 19.75V16.707H14.6338Z" fill="#98A2B3"/>
</svg>
