<svg width="25" height="24" viewBox="0 0 25 24" fill="none" xmlns="http://www.w3.org/2000/svg">
<path d="M19.5282 3.14444H17.3569V2.1731C17.3569 1.85884 17.0141 1.71601 16.6998 1.71601H15.0143C14.6143 0.573235 13.6144 0.00184981 12.4716 0.00184981C11.3414 -0.0406391 10.3134 0.652362 9.92895 1.71601H8.27193C7.95767 1.71601 7.6434 1.85884 7.6434 2.1731V3.14444H5.4721C4.1854 3.15817 3.13275 4.1732 3.07227 5.45853V21.8287C3.07227 23.0857 4.21504 23.9999 5.4721 23.9999H19.5282C20.7852 23.9999 21.928 23.0857 21.928 21.8287V5.45858C21.8675 4.1732 20.8149 3.15817 19.5282 3.14444ZM8.78612 2.85878H10.3574C10.4911 2.84247 10.6159 2.78371 10.7136 2.69114C10.8114 2.59857 10.8768 2.47707 10.9003 2.34454C11.0695 1.60773 11.7159 1.07884 12.4716 1.05893C13.2203 1.08163 13.857 1.61216 14.0143 2.34454C14.0392 2.4814 14.1088 2.60613 14.2122 2.69919C14.3156 2.79225 14.447 2.84838 14.5857 2.85878H16.2142V5.14432H8.78612V2.85878ZM20.7852 21.8287C20.7852 22.4573 20.1567 22.8572 19.5282 22.8572H5.4721C4.84357 22.8572 4.21504 22.4573 4.21504 21.8287V5.45858C4.27333 4.80435 4.81535 4.29924 5.4721 4.28727H7.64335V5.7443C7.67353 6.06442 7.95078 6.30388 8.27188 6.28715H16.6998C16.8575 6.29577 17.0126 6.24471 17.1344 6.14412C17.2561 6.04354 17.3356 5.9008 17.3568 5.7443V4.28721H19.5281C20.1848 4.29924 20.7269 4.8043 20.7852 5.45853V21.8287H20.7852Z" fill="#98A2B3"/>
<path d="M10.3003 12.7722C10.086 12.5463 9.73021 12.5335 9.50032 12.7436L7.67188 14.4863L6.90051 13.6864C6.68621 13.4605 6.33044 13.4478 6.10055 13.6578C5.99401 13.7694 5.93457 13.9178 5.93457 14.0721C5.93457 14.2264 5.99401 14.3747 6.10055 14.4863L7.27187 15.6862C7.32195 15.7423 7.38371 15.7867 7.45282 15.8164C7.52192 15.846 7.59668 15.8601 7.67182 15.8577C7.82254 15.8555 7.9663 15.7939 8.07178 15.6862L10.3002 13.5721C10.5211 13.3695 10.5359 13.0261 10.3331 12.8052C10.3227 12.7937 10.3118 12.7826 10.3003 12.7722ZM18.4997 14.0006H11.9288C11.6132 14.0006 11.3574 14.2564 11.3574 14.572C11.3574 14.8876 11.6132 15.1434 11.9288 15.1434H18.4997C18.8152 15.1434 19.071 14.8876 19.071 14.572C19.071 14.2564 18.8152 14.0006 18.4997 14.0006ZM10.3003 8.20108C10.086 7.97519 9.73021 7.96245 9.50032 8.17254L7.67188 9.91524L6.90051 9.11528C6.68621 8.88938 6.33044 8.87664 6.10055 9.08673C5.99401 9.19834 5.93457 9.3467 5.93457 9.50099C5.93457 9.65528 5.99401 9.80364 6.10055 9.91524L7.27187 11.1152C7.32195 11.1712 7.38371 11.2156 7.45282 11.2453C7.52192 11.2749 7.59668 11.289 7.67182 11.2866C7.82254 11.2844 7.9663 11.2228 8.07178 11.1152L10.3002 9.00105C10.5211 8.79839 10.5359 8.45498 10.3331 8.23411C10.3227 8.22258 10.3118 8.21156 10.3003 8.20108ZM18.4997 9.42954H11.9288C11.6132 9.42954 11.3574 9.68535 11.3574 10.0009C11.3574 10.3165 11.6132 10.5723 11.9288 10.5723H18.4997C18.8152 10.5723 19.071 10.3165 19.071 10.0009C19.071 9.68535 18.8152 9.42954 18.4997 9.42954ZM10.3003 17.3432C10.086 17.1173 9.73021 17.1046 9.50032 17.3147L7.67188 19.0574L6.90051 18.2574C6.68621 18.0315 6.33044 18.0188 6.10055 18.2288C5.99401 18.3405 5.93457 18.4888 5.93457 18.6431C5.93457 18.7974 5.99401 18.9458 6.10055 19.0574L7.27187 20.2573C7.32195 20.3133 7.38371 20.3578 7.45282 20.3874C7.52192 20.417 7.59668 20.4311 7.67182 20.4287C7.82254 20.4266 7.9663 20.3649 8.07178 20.2573L10.3002 18.1432C10.5211 17.9405 10.5359 17.5971 10.3331 17.3762C10.3227 17.3647 10.3117 17.3537 10.3003 17.3432ZM18.4997 18.5717H11.9288C11.6132 18.5717 11.3574 18.8275 11.3574 19.1431C11.3574 19.4587 11.6132 19.7145 11.9288 19.7145H18.4997C18.8152 19.7145 19.071 19.4587 19.071 19.1431C19.071 18.8275 18.8152 18.5717 18.4997 18.5717Z" fill="#98A2B3"/>
</svg>
