<svg width="20" height="21" viewBox="0 0 20 21" fill="none" xmlns="http://www.w3.org/2000/svg">
<path d="M5 8.83335V7.16669C5 4.40835 5.83333 2.16669 10 2.16669C14.1667 2.16669 15 4.40835 15 7.16669V8.83335" stroke="#FCD522" stroke-width="1.5" stroke-linecap="round" stroke-linejoin="round"/>
<path d="M10.0003 15.9167C11.1509 15.9167 12.0837 14.9839 12.0837 13.8333C12.0837 12.6827 11.1509 11.75 10.0003 11.75C8.84973 11.75 7.91699 12.6827 7.91699 13.8333C7.91699 14.9839 8.84973 15.9167 10.0003 15.9167Z" stroke="#FCD522" stroke-width="1.5" stroke-linecap="round" stroke-linejoin="round"/>
<path d="M14.167 18.8333H5.83366C2.50033 18.8333 1.66699 18 1.66699 14.6666V13C1.66699 9.66665 2.50033 8.83331 5.83366 8.83331H14.167C17.5003 8.83331 18.3337 9.66665 18.3337 13V14.6666C18.3337 18 17.5003 18.8333 14.167 18.8333Z" stroke="#FCD522" stroke-width="1.5" stroke-linecap="round" stroke-linejoin="round"/>
</svg>
