<svg width="20" height="20" viewBox="0 0 20 20" fill="none" xmlns="http://www.w3.org/2000/svg">
<path d="M10.0165 2.42505C7.25816 2.42505 5.0165 4.66672 5.0165 7.42505V9.83338C5.0165 10.3417 4.79983 11.1167 4.5415 11.55L3.58316 13.1417C2.9915 14.125 3.39983 15.2167 4.48316 15.5834C8.07483 16.7834 11.9498 16.7834 15.5415 15.5834C16.5498 15.25 16.9915 14.0584 16.4415 13.1417L15.4832 11.55C15.2332 11.1167 15.0165 10.3417 15.0165 9.83338V7.42505C15.0165 4.67505 12.7665 2.42505 10.0165 2.42505Z" stroke="#1F1F1F" stroke-width="1.5" stroke-miterlimit="10" stroke-linecap="round"/>
<path d="M11.5579 2.6667C11.2996 2.5917 11.0329 2.53337 10.7579 2.50003C9.95794 2.40003 9.19128 2.45837 8.47461 2.6667C8.71628 2.05003 9.31628 1.6167 10.0163 1.6167C10.7163 1.6167 11.3163 2.05003 11.5579 2.6667Z" stroke="#1F1F1F" stroke-width="1.5" stroke-miterlimit="10" stroke-linecap="round" stroke-linejoin="round"/>
<path d="M12.5166 15.8833C12.5166 17.2583 11.3916 18.3833 10.0166 18.3833C9.33327 18.3833 8.69993 18.1 8.24993 17.65C7.79993 17.2 7.5166 16.5666 7.5166 15.8833" stroke="#1F1F1F" stroke-width="1.5" stroke-miterlimit="10"/>
</svg>
