<svg width="18" height="18" viewBox="0 0 18 18" fill="none" xmlns="http://www.w3.org/2000/svg">
<path d="M2.125 15.0938C2.125 15.525 2.475 15.875 2.90625 15.875H4.625V11.4556L2.86125 12.4106C2.63848 12.5313 2.45247 12.71 2.32288 12.9277C2.19328 13.1454 2.12491 13.3941 2.125 13.6475V15.0938ZM5.875 10.7787V15.875H12.125V10.7787L9.075 9.12625C9.052 9.11367 9.02621 9.10707 9 9.10707C8.97379 9.10707 8.948 9.11367 8.925 9.12625L5.875 10.7787ZM13.375 11.4556V15.875H15.0938C15.525 15.875 15.875 15.525 15.875 15.0938V13.6475C15.8751 13.3941 15.8067 13.1454 15.6771 12.9277C15.5475 12.71 15.3615 12.5313 15.1388 12.4106L13.375 11.4556ZM2.90625 17.125C2.36753 17.125 1.85087 16.911 1.46994 16.5301C1.08901 16.1491 0.875 15.6325 0.875 15.0938V13.6475C0.875011 13.169 1.00429 12.6993 1.24918 12.2882C1.49407 11.8771 1.84547 11.5398 2.26625 11.3119L7.25688 8.60812C6.42383 8.21249 5.75019 7.54521 5.34669 6.71595C4.94318 5.88669 4.83383 4.94483 5.03661 4.04518C5.23939 3.14554 5.74223 2.34166 6.46246 1.76569C7.1827 1.18972 8.07747 0.87595 8.99969 0.87595C9.9219 0.87595 10.8167 1.18972 11.5369 1.76569C12.2571 2.34166 12.76 3.14554 12.9628 4.04518C13.1655 4.94483 13.0562 5.88669 12.6527 6.71595C12.2492 7.54521 11.5755 8.21249 10.7425 8.60812L15.7338 11.3119C16.1545 11.5398 16.5059 11.8771 16.7508 12.2882C16.9957 12.6993 17.125 13.169 17.125 13.6475V15.0938C17.125 15.6325 16.911 16.1491 16.5301 16.5301C16.1491 16.911 15.6325 17.125 15.0938 17.125H2.90625ZM6.1875 4.9375C6.1875 5.68342 6.48382 6.39879 7.01126 6.92624C7.53871 7.45368 8.25408 7.75 9 7.75C9.74592 7.75 10.4613 7.45368 10.9887 6.92624C11.5162 6.39879 11.8125 5.68342 11.8125 4.9375C11.8125 4.19158 11.5162 3.47621 10.9887 2.94876C10.4613 2.42132 9.74592 2.125 9 2.125C8.25408 2.125 7.53871 2.42132 7.01126 2.94876C6.48382 3.47621 6.1875 4.19158 6.1875 4.9375Z" fill="#344054"/>
</svg>
