<svg width="20" height="21" viewBox="0 0 20 21" fill="none" xmlns="http://www.w3.org/2000/svg">
<path d="M4.94729 17.1731L4.06683 18.5279C3.89641 18.792 3.97026 19.1442 4.2344 19.3146C4.33097 19.3771 4.43608 19.4055 4.54398 19.4055C4.73143 19.4055 4.91323 19.3146 5.02114 19.1471L5.88172 17.8235C7.11435 18.5563 8.55151 18.9795 10.0852 18.9795C11.6218 18.9795 13.0589 18.5563 14.2887 17.8207L15.1465 19.1443C15.2544 19.3118 15.439 19.4027 15.6236 19.4027C15.7287 19.4027 15.8366 19.3743 15.9332 19.3118C16.1974 19.1414 16.2712 18.7892 16.1008 18.5251L15.2232 17.1703C17.1091 15.6622 18.3218 13.3417 18.3218 10.7429C18.3218 6.20144 14.6267 2.50635 10.0852 2.50635C5.54373 2.50635 1.84863 6.2014 1.84863 10.7429C1.84863 13.3417 3.06139 15.6621 4.94729 17.1731ZM10.0852 3.64236C14.0019 3.64236 17.1858 6.82625 17.1858 10.7429C17.1858 14.6595 14.0019 17.8434 10.0852 17.8434C6.16858 17.8434 2.9847 14.6595 2.9847 10.7429C2.9847 6.82625 6.16858 3.64236 10.0852 3.64236Z" fill="#FCD522"/>
<path d="M11.9827 13.1595C12.0906 13.2532 12.2242 13.2987 12.3576 13.2987C12.4387 13.2988 12.5189 13.2816 12.5929 13.2483C12.6669 13.215 12.7329 13.1663 12.7865 13.1055C12.9938 12.8698 12.9683 12.5119 12.7325 12.3046L10.6535 10.484V5.91411C10.6535 5.60168 10.3979 5.34608 10.0855 5.34608C9.77304 5.34608 9.51743 5.60168 9.51743 5.91411V10.7425C9.51743 10.9072 9.58844 11.0634 9.71057 11.1713L11.9827 13.1595ZM2.98493 4.36051C3.13263 4.36051 3.28033 4.30369 3.39108 4.1901C4.06707 3.49993 4.83393 2.92336 5.6661 2.47462C5.94158 2.32692 6.04668 1.98328 5.89899 1.70491C5.75129 1.42943 5.40765 1.32433 5.12928 1.47203C4.19205 1.97475 3.33431 2.61947 2.57598 3.39487C2.35728 3.61927 2.36013 3.97993 2.58452 4.19863C2.69807 4.30659 2.84292 4.36051 2.98493 4.36051ZM14.5048 2.47462C15.3398 2.92052 16.1039 3.49993 16.7798 4.1901C16.8906 4.30369 17.0383 4.36051 17.186 4.36051C17.3346 4.36037 17.4772 4.3023 17.5836 4.19863C17.808 3.97993 17.8108 3.61922 17.5921 3.39487C16.8367 2.62232 15.9761 1.97475 15.0388 1.47207C14.7605 1.32437 14.4168 1.42948 14.2691 1.70496C14.1242 1.98328 14.2265 2.32692 14.5048 2.47462Z" fill="#FCD522"/>
</svg>
