<svg width="14" height="14" viewBox="0 0 14 14" fill="none" xmlns="http://www.w3.org/2000/svg">
<g clip-path="url(#clip0_524_570)">
<path d="M9.30948 6.72635L6.40242 4.61314C6.3502 4.57507 6.28846 4.55218 6.22403 4.54702C6.15961 4.54185 6.09501 4.55461 6.03738 4.58388C5.97976 4.61315 5.93135 4.65779 5.89753 4.71287C5.8637 4.76794 5.84576 4.8313 5.8457 4.89593V9.12094C5.84551 9.18568 5.8633 9.24919 5.89709 9.30441C5.93088 9.35962 5.97935 9.40436 6.03708 9.43364C6.09481 9.46291 6.15954 9.47558 6.22406 9.47021C6.28857 9.46485 6.35032 9.44167 6.40242 9.40326L9.30948 7.29192C9.3544 7.2597 9.391 7.21725 9.41624 7.16807C9.44149 7.1189 9.45466 7.06441 9.45466 7.00914C9.45466 6.95386 9.44149 6.89937 9.41624 6.8502C9.391 6.80102 9.3544 6.75857 9.30948 6.72635Z" fill="#667085"/>
<path d="M7.00023 0.000976562C3.13347 0.000976562 0 3.13445 0 7.00121C0 10.8666 3.13347 13.9991 7.00023 13.9991C10.8661 13.9991 14 10.8661 14 7.00121C14.0005 3.13445 10.8661 0.000976562 7.00023 0.000976562ZM7.00023 12.8312C3.78011 12.8312 1.16935 10.2218 1.16935 7.00121C1.16935 3.78202 3.78011 1.16939 7.00023 1.16939C10.2199 1.16939 12.8302 3.78155 12.8302 7.00121C12.8307 10.2218 10.2199 12.8312 7.00023 12.8312Z" fill="#667085"/>
</g>
<defs>
<clipPath id="clip0_524_570">
<rect width="14" height="14" fill="white"/>
</clipPath>
</defs>
</svg>
